<svg xmlns="http://www.w3.org/2000/svg" version="1.1" xmlns:xlink="http://www.w3.org/1999/xlink" xmlns:svgjs="http://svgjs.dev/svgjs" width="1500" height="935" viewBox="0 0 1500 935"><g transform="matrix(1,0,0,1,-0.9090909090909918,0.3785425101214628)"><svg viewBox="0 0 396 247" data-background-color="#000000" preserveAspectRatio="xMidYMid meet" height="935" width="1500" xmlns="http://www.w3.org/2000/svg" xmlns:xlink="http://www.w3.org/1999/xlink"><g id="tight-bounds" transform="matrix(1,0,0,1,0.2400000000000091,-0.09999999999999432)"><svg viewBox="0 0 395.52 247.2" height="247.2" width="395.52"><g><svg></svg></g><g><svg viewBox="0 0 395.52 247.2" height="247.2" width="395.52"><mask id="8937d12e-b4f0-41cb-a84c-002b4bbfa411"><rect width="395.52" height="247.2" fill="white"></rect><g transform="matrix(1,0,0,1,0,46.26871945001879)" id="clone"><svg viewBox="0 0 395.52 154.6625610999624" height="154.6625610999624" width="395.52"><g><svg viewBox="0 0 395.52 154.6625610999624" height="154.6625610999624" width="395.52"><g><svg viewBox="0 0 395.52 154.6625610999624" height="154.6625610999624" width="395.52"><g><svg viewBox="0 0 395.52 154.6625610999624" height="154.6625610999624" width="395.52"><g id="SvgjsG1513"><svg viewBox="0 0 395.52 154.6625610999624" height="154.6625610999624" width="395.52" id="SvgjsSvg1512"><g><svg viewBox="0 0 395.52 91.9756299360662" height="91.9756299360662" width="395.52"><g transform="matrix(1,0,0,1,0,0)"><svg width="395.52" viewBox="-1.45 -43.9 200.41 47.379999999999995" height="91.9756299360662" data-palette-color="#48937e"><path d="M27.28 0L1.55 0 1.55-2.27 22.28-34.48 22.55-33.52 1.83-33.52 1.83-37 27-37 27-34.73 6.25-2.53 6-3.48 27.28-3.48 27.28 0ZM38.8 0.45L38.8 0.45Q34.97 0.45 32.79-1.53 30.6-3.5 30.6-6.95L30.6-6.95Q30.6-10.5 32.94-12.49 35.27-14.48 40.45-14.98L40.45-14.98 47.72-15.75 48.1-13.1 40.7-12.3Q37.47-11.98 36.06-10.74 34.65-9.5 34.65-7.33L34.65-7.33Q34.65-5.05 35.95-3.85 37.25-2.65 39.82-2.65L39.82-2.65Q41.6-2.65 43.4-3.41 45.2-4.17 46.62-5.98L46.62-5.98 46.62-17.95Q46.62-20.45 45.85-21.81 45.07-23.18 43.52-23.73 41.97-24.28 39.62-24.28L39.62-24.28Q38.1-24.28 36.16-24 34.22-23.73 32.3-23.08L32.3-23.08 32.3-26.35Q34.05-26.93 36.16-27.24 38.27-27.55 40.15-27.55L40.15-27.55Q43.6-27.55 45.91-26.65 48.22-25.75 49.39-23.61 50.55-21.48 50.55-17.78L50.55-17.78 50.55 0 47.2 0 46.9-3.03 46.65-3.03Q45.32-1.35 43.26-0.45 41.2 0.45 38.8 0.45ZM63.59 0L59.62 0 59.62-31.23Q59.62-34.38 60.73-36.54 61.84-38.7 64.05-39.8 66.25-40.9 69.47-40.9L69.47-40.9Q70.4-40.9 71.33-40.83 72.27-40.75 73.17-40.6L73.17-40.6 73.17-37.25Q72.32-37.4 71.51-37.46 70.7-37.52 69.87-37.52L69.87-37.52Q66.7-37.52 65.15-36.13 63.59-34.73 63.59-31.4L63.59-31.4 63.59 0ZM72.12-23.83L54.52-23.83 54.52-27.13 72.12-27.13 72.12-23.83ZM81.87 0.45L81.87 0.45Q78.04 0.45 75.86-1.53 73.67-3.5 73.67-6.95L73.67-6.95Q73.67-10.5 76.01-12.49 78.34-14.48 83.52-14.98L83.52-14.98 90.79-15.75 91.17-13.1 83.77-12.3Q80.54-11.98 79.13-10.74 77.72-9.5 77.72-7.33L77.72-7.33Q77.72-5.05 79.02-3.85 80.32-2.65 82.89-2.65L82.89-2.65Q84.67-2.65 86.47-3.41 88.27-4.17 89.69-5.98L89.69-5.98 89.69-17.95Q89.69-20.45 88.92-21.81 88.14-23.18 86.59-23.73 85.04-24.28 82.69-24.28L82.69-24.28Q81.17-24.28 79.23-24 77.29-23.73 75.37-23.08L75.37-23.08 75.37-26.35Q77.12-26.93 79.23-27.24 81.34-27.55 83.22-27.55L83.22-27.55Q86.67-27.55 88.98-26.65 91.29-25.75 92.46-23.61 93.62-21.48 93.62-17.78L93.62-17.78 93.62 0 90.27 0 89.97-3.03 89.72-3.03Q88.39-1.35 86.33-0.45 84.27 0.45 81.87 0.45ZM104.89 0L100.89 0 100.89-27.13 104.24-27.13 104.57-23.5 104.82-23.5Q106.22-25.43 108.33-26.41 110.44-27.4 112.74-27.4L112.74-27.4Q113.37-27.4 113.88-27.35 114.39-27.3 114.89-27.2L114.89-27.2 114.89-23.5Q114.32-23.6 113.75-23.63 113.19-23.65 112.54-23.65L112.54-23.65Q111.22-23.65 109.78-23.24 108.34-22.83 107.07-21.96 105.79-21.1 104.89-19.8L104.89-19.8 104.89 0ZM127.49 0.48L127.49 0.48Q125.36 0.48 123.19 0.16 121.01-0.15 119.11-0.75L119.11-0.75 119.11-40.4 123.11-40.4 123.11-24.33 123.34-24.33Q124.59-25.75 126.5-26.65 128.41-27.55 130.86-27.55L130.86-27.55Q133.69-27.55 136.04-26.24 138.39-24.93 139.8-21.96 141.21-19 141.21-14.08L141.21-14.08Q141.21-6.73 137.73-3.13 134.24 0.48 127.49 0.48ZM127.79-2.8L127.79-2.8Q132.39-2.8 134.76-5.35 137.14-7.9 137.14-13.73L137.14-13.73Q137.14-17.78 136.16-20.03 135.19-22.28 133.5-23.19 131.81-24.1 129.69-24.1L129.69-24.1Q127.84-24.1 126.08-23.34 124.31-22.58 123.11-20.95L123.11-20.95 123.11-3.4Q124.01-3.15 125.25-2.98 126.49-2.8 127.79-2.8ZM158.91 0.48L158.91 0.48Q154.69 0.48 151.82-0.96 148.96-2.4 147.51-5.49 146.06-8.58 146.06-13.58L146.06-13.58Q146.06-18.35 147.4-21.45 148.74-24.55 151.2-26.05 153.66-27.55 157.04-27.55L157.04-27.55Q160.36-27.55 162.7-26.04 165.04-24.53 166.26-21.41 167.49-18.3 167.49-13.48L167.49-13.48 167.49-12.25 148.24-12.25 148.24-14.98 164.54-14.98 163.66-14.38Q163.66-18.18 162.87-20.43 162.09-22.68 160.6-23.66 159.11-24.65 156.99-24.65L156.99-24.65Q154.89-24.65 153.34-23.68 151.79-22.7 150.95-20.45 150.11-18.2 150.11-14.38L150.11-14.38 150.11-12.98Q150.11-9.22 151.12-6.99 152.14-4.75 154.19-3.76 156.24-2.78 159.39-2.78L159.39-2.78Q160.94-2.78 162.6-3.06 164.26-3.35 166.14-3.88L166.14-3.88 166.14-0.6Q164.19-0.05 162.42 0.21 160.66 0.48 158.91 0.48ZM195.96 0L191.43 0 180.53-13.9 190.68-27.13 195.13-27.13 184.71-13.4 184.71-14.5 195.96 0ZM182.26-12.23L176.73-12.23 176.73-15.58 182.26-15.58 182.26-12.23ZM177.23 0L173.23 0 173.23-40.4 177.23-40.4 177.23 0Z" opacity="1" transform="matrix(1,0,0,1,0,0)" fill="black" class="wordmark-text-0" id="SvgjsPath1511" stroke-width="5" stroke="black" stroke-linejoin="round"></path></svg></g></svg></g><g transform="matrix(1,0,0,1,2.5,103.95002495855586)"><svg viewBox="0 0 390.52 50.71253614140655" height="50.71253614140655" width="390.52"><g transform="matrix(1,0,0,1,0,0)"><svg width="390.52" viewBox="-0.6600000000000001 -39.16 388 50.949999999999996" height="50.71253614140655" data-palette-color="#48937e"><path d="M23-17.9L23-17.9Q22.83-14.79 22.02-12.21 21.22-9.62 19.98-7.56 18.75-5.49 17.19-3.94 15.63-2.39 13.95-1.35 12.28-0.32 10.58 0.2 8.89 0.71 7.4 0.71L7.4 0.71Q6.15 0.68 5.13 0.56L5.13 0.56Q4.69 0.51 4.25 0.43 3.81 0.34 3.43 0.23 3.05 0.12 2.76-0.02 2.47-0.17 2.34-0.39L2.34-0.39 3.05-35.11Q3.54-35.42 4.19-35.63 4.83-35.84 5.55-35.95 6.27-36.06 7.01-36.11 7.74-36.16 8.4-36.16L8.4-36.16Q9.89-36.16 11.56-35.88 13.23-35.6 14.87-34.89 16.5-34.18 17.98-33 19.46-31.81 20.58-29.98 21.7-28.15 22.38-25.63 23.05-23.12 23.05-19.75L23.05-19.75Q23.05-19.29 23.05-18.84 23.05-18.38 23-17.9ZM18.09-18.46L18.09-18.46Q18.09-18.58 18.09-19.27 18.09-19.97 18.01-21.02 17.92-22.07 17.7-23.38 17.48-24.68 17.04-26.03 16.6-27.37 15.92-28.64 15.23-29.91 14.2-30.91 13.16-31.91 11.74-32.52 10.33-33.13 8.45-33.15L8.45-33.15 6.25-1.9Q7.35-2 8.59-2.37 9.84-2.73 11.07-3.49 12.3-4.25 13.46-5.46 14.62-6.67 15.56-8.47 16.5-10.28 17.18-12.74 17.85-15.21 18.09-18.46ZM70.62-14.36L52.87-14.36Q52.82-14.09 52.85-13.83 52.87-13.57 52.87-13.31L52.87-13.31Q52.87-10.86 53.36-9.19 53.85-7.52 54.59-6.42 55.34-5.32 56.23-4.74 57.12-4.15 57.9-3.87 58.68-3.59 59.24-3.54 59.8-3.49 59.93-3.49L59.93-3.49Q59.9-3.49 60.27-3.53 60.63-3.56 61.23-3.72 61.83-3.88 62.59-4.22 63.34-4.57 64.09-5.19 64.83-5.81 65.49-6.75 66.15-7.69 66.57-9.06L66.57-9.06 69.57-8.2Q69.2-6.69 68.59-5.52 67.98-4.35 67.24-3.47 66.49-2.59 65.65-1.97 64.81-1.34 64-0.95L64-0.95Q62.1 0.02 59.93 0.2L59.93 0.2Q57.78 0.2 56.13-0.45 54.48-1.1 53.29-2.2 52.09-3.3 51.28-4.71 50.48-6.13 50-7.68 49.53-9.23 49.32-10.78 49.11-12.33 49.11-13.7L49.11-13.7Q49.11-14.97 49.26-16.48 49.4-17.99 49.82-19.53 50.23-21.07 50.99-22.51 51.75-23.95 52.97-25.07 54.19-26.2 55.93-26.87 57.68-27.54 60.07-27.54L60.07-27.54Q60.49-27.54 61.43-27.45 62.37-27.37 63.54-26.97 64.71-26.56 65.96-25.74 67.2-24.93 68.24-23.46 69.28-22 69.95-19.78 70.62-17.55 70.62-14.36L70.62-14.36ZM59.93-23.8L59.93-23.8Q58.24-23.68 56.83-23L56.83-23Q56.22-22.71 55.62-22.25 55.02-21.8 54.51-21.15 53.99-20.51 53.6-19.63 53.21-18.75 53.07-17.6L53.07-17.6 66.47-17.6Q66.32-19.04 65.69-20.19 65.05-21.34 64.14-22.14 63.22-22.95 62.11-23.38 61-23.8 59.93-23.8ZM111.33-26L115.77-25.39 107.67-0.05 102.81-0.05 95.46-25.29 99.88-26 105.47-2.81 111.33-26ZM162.18-14.36L144.43-14.36Q144.38-14.09 144.4-13.83 144.43-13.57 144.43-13.31L144.43-13.31Q144.43-10.86 144.91-9.19 145.4-7.52 146.15-6.42 146.89-5.32 147.78-4.74 148.67-4.15 149.46-3.87 150.24-3.59 150.8-3.54 151.36-3.49 151.48-3.49L151.48-3.49Q151.46-3.49 151.82-3.53 152.19-3.56 152.79-3.72 153.39-3.88 154.14-4.22 154.9-4.57 155.64-5.19 156.39-5.81 157.05-6.75 157.71-7.69 158.12-9.06L158.12-9.06 161.13-8.2Q160.76-6.69 160.15-5.52 159.54-4.35 158.79-3.47 158.05-2.59 157.21-1.97 156.37-1.34 155.56-0.95L155.56-0.95Q153.66 0.02 151.48 0.2L151.48 0.2Q149.33 0.2 147.69-0.45 146.04-1.1 144.84-2.2 143.65-3.3 142.84-4.71 142.03-6.13 141.56-7.68 141.08-9.23 140.87-10.78 140.67-12.33 140.67-13.7L140.67-13.7Q140.67-14.97 140.81-16.48 140.96-17.99 141.37-19.53 141.79-21.07 142.55-22.51 143.3-23.95 144.52-25.07 145.74-26.2 147.49-26.87 149.24-27.54 151.63-27.54L151.63-27.54Q152.04-27.54 152.98-27.45 153.92-27.37 155.1-26.97 156.27-26.56 157.51-25.74 158.76-24.93 159.8-23.46 160.83-22 161.5-19.78 162.18-17.55 162.18-14.36L162.18-14.36ZM151.48-23.8L151.48-23.8Q149.8-23.68 148.38-23L148.38-23Q147.77-22.71 147.17-22.25 146.58-21.8 146.06-21.15 145.55-20.51 145.16-19.63 144.77-18.75 144.62-17.6L144.62-17.6 158.03-17.6Q157.88-19.04 157.24-20.19 156.61-21.34 155.69-22.14 154.78-22.95 153.67-23.38 152.56-23.8 151.48-23.8ZM189.46-34.74L193.34-34.45 192.85-0.15 189.95-0.15 189.46-34.74ZM242.67-14.55L242.67-14.55Q242.67-11.04 241.85-8.25 241.04-5.47 239.63-3.53 238.23-1.59 236.32-0.55 234.42 0.49 232.27 0.49L232.27 0.49Q230.1 0.49 228.19-0.59 226.29-1.66 224.87-3.64 223.46-5.62 222.64-8.39 221.82-11.16 221.82-14.55L221.82-14.55Q221.82-17.46 222.54-19.86 223.26-22.27 224.62-24 225.97-25.73 227.91-26.7 229.85-27.66 232.27-27.66L232.27-27.66Q234.96-27.66 236.91-26.7 238.86-25.73 240.15-24 241.43-22.27 242.05-19.86 242.67-17.46 242.67-14.55ZM238.89-14.5L238.89-14.5Q238.89-16.7 238.5-18.51 238.11-20.31 237.29-21.62 236.47-22.92 235.23-23.63 233.98-24.34 232.27-24.34L232.27-24.34Q230.73-24.34 229.5-23.63 228.27-22.92 227.41-21.62 226.56-20.31 226.1-18.51 225.63-16.7 225.63-14.5L225.63-14.5Q225.63-11.94 226.16-9.86 226.68-7.79 227.57-6.3 228.46-4.81 229.67-4 230.88-3.2 232.27-3.2L232.27-3.2Q233.64-3.2 234.85-3.98 236.06-4.76 236.95-6.23 237.84-7.69 238.36-9.78 238.89-11.87 238.89-14.5ZM291.86-14.21L291.86-14.21Q291.86-11.16 291.18-8.36 290.51-5.57 289.23-3.44 287.95-1.32 286.09-0.06 284.24 1.2 281.87 1.2L281.87 1.2Q280.26 1.12 278.75 0.54L278.75 0.54Q278.11 0.29 277.44-0.09 276.77-0.46 276.12-1.01 275.47-1.56 274.91-2.31 274.35-3.05 273.91-4.05L273.91-4.05 273.91 8.79 270.47 8.79 270.47-25.9 274.3-25.9 273.96-22.14Q274.47-23 275.08-23.66 275.69-24.32 276.35-24.8 277.01-25.29 277.68-25.62 278.36-25.95 278.99-26.17L278.99-26.17Q280.45-26.68 281.97-26.76L281.97-26.76Q284.09-26.76 285.89-25.89 287.68-25.02 288.99-23.39 290.29-21.75 291.05-19.43 291.81-17.11 291.86-14.21ZM281.02-2.54L281.02-2.54Q282.48-2.54 283.59-3.09 284.7-3.64 285.51-4.55 286.31-5.47 286.85-6.67 287.39-7.86 287.72-9.18 288.05-10.5 288.18-11.83 288.32-13.16 288.32-14.36L288.32-14.36Q288.32-16.87 287.63-18.62 286.95-20.36 285.92-21.46 284.9-22.56 283.69-23.06 282.48-23.56 281.41-23.56L281.41-23.56Q280.31-23.56 279.03-22.99 277.74-22.41 276.65-21.19 275.55-19.97 274.83-18.08 274.11-16.19 274.11-13.55L274.11-13.55Q274.11-11.4 274.44-9.77 274.77-8.13 275.32-6.9 275.86-5.66 276.59-4.83 277.31-4 278.07-3.49 278.84-2.98 279.6-2.76 280.36-2.54 281.02-2.54ZM339.67-14.36L321.92-14.36Q321.87-14.09 321.9-13.83 321.92-13.57 321.92-13.31L321.92-13.31Q321.92-10.86 322.41-9.19 322.9-7.52 323.64-6.42 324.39-5.32 325.28-4.74 326.17-4.15 326.95-3.87 327.73-3.59 328.3-3.54 328.86-3.49 328.98-3.49L328.98-3.49Q328.95-3.49 329.32-3.53 329.69-3.56 330.29-3.72 330.88-3.88 331.64-4.22 332.4-4.57 333.14-5.19 333.89-5.81 334.55-6.75 335.2-7.69 335.62-9.06L335.62-9.06 338.62-8.2Q338.26-6.69 337.65-5.52 337.04-4.35 336.29-3.47 335.55-2.59 334.7-1.97 333.86-1.34 333.06-0.95L333.06-0.95Q331.15 0.02 328.98 0.2L328.98 0.2Q326.83 0.2 325.18-0.45 323.54-1.1 322.34-2.2 321.14-3.3 320.34-4.71 319.53-6.13 319.06-7.68 318.58-9.23 318.37-10.78 318.16-12.33 318.16-13.7L318.16-13.7Q318.16-14.97 318.31-16.48 318.46-17.99 318.87-19.53 319.29-21.07 320.04-22.51 320.8-23.95 322.02-25.07 323.24-26.2 324.99-26.87 326.73-27.54 329.13-27.54L329.13-27.54Q329.54-27.54 330.48-27.45 331.42-27.37 332.59-26.97 333.76-26.56 335.01-25.74 336.25-24.93 337.29-23.46 338.33-22 339-19.78 339.67-17.55 339.67-14.36L339.67-14.36ZM328.98-23.8L328.98-23.8Q327.29-23.68 325.88-23L325.88-23Q325.27-22.71 324.67-22.25 324.07-21.8 323.56-21.15 323.05-20.51 322.66-19.63 322.27-18.75 322.12-17.6L322.12-17.6 335.52-17.6Q335.38-19.04 334.74-20.19 334.11-21.34 333.19-22.14 332.28-22.95 331.16-23.38 330.05-23.8 328.98-23.8ZM379.29-26.29L379.29-26.29Q380.7-26.29 381.67-25.71 382.63-25.12 383.23-24.15 383.83-23.17 384.08-21.89 384.34-20.61 384.34-19.24L384.34-19.24Q384.34-17.9 384.19-16 384.05-14.11 383.56-12.16L383.56-12.16 380.56-12.6Q380.85-14.33 380.95-15.78 381.04-17.24 381.04-18.31L381.04-18.31Q381.04-20.92 380.49-21.98 379.95-23.05 378.8-23.05L378.8-23.05Q377.8-23.05 376.63-22.12 375.45-21.19 374.33-19.31 373.21-17.43 372.28-14.58 371.35-11.72 370.84-7.86L370.84-7.86 370.84 0.76 367.15 0.56Q367.13-6.54 367.02-11.58 366.91-16.63 366.81-19.82L366.81-19.82Q366.66-23.58 366.49-26L366.49-26 370.84-26.29 370.84-18.31Q371.33-19.63 372.1-21.03 372.87-22.44 373.93-23.61 374.99-24.78 376.32-25.54 377.65-26.29 379.29-26.29Z" opacity="1" transform="matrix(1,0,0,1,0,0)" fill="black" class="slogan-text-1" id="SvgjsPath1510" stroke-width="5" stroke="black" stroke-linejoin="round"></path></svg></g></svg></g></svg></g></svg></g></svg></g></svg></g></svg></g></mask><g mask="url(#8937d12e-b4f0-41cb-a84c-002b4bbfa411)"><g><path d="M283.712 247.2h-171.904v-15.166l138.499-215.198 1.804 6.414h-138.432v-23.25h168.162v15.166l-138.632 215.131-1.67-6.347h142.173z" fill="#48937e" fill-rule="nonzero" stroke="none" stroke-width="1" stroke-linecap="butt" stroke-linejoin="miter" stroke-miterlimit="10" stroke-dasharray="" stroke-dashoffset="0" font-family="none" font-weight="none" font-size="none" text-anchor="none" style="mix-blend-mode: normal" data-fill-palette-color="tertiary"></path></g></g><g transform="matrix(1,0,0,1,0,46.26871945001879)"><svg viewBox="0 0 395.52 154.6625610999624" height="154.6625610999624" width="395.52"><g><svg viewBox="0 0 395.52 154.6625610999624" height="154.6625610999624" width="395.52"><g><svg viewBox="0 0 395.52 154.6625610999624" height="154.6625610999624" width="395.52"><g><svg viewBox="0 0 395.52 154.6625610999624" height="154.6625610999624" width="395.52"><g id="textblocktransform"><svg viewBox="0 0 395.52 154.6625610999624" height="154.6625610999624" width="395.52" id="textblock"><g><svg viewBox="0 0 395.52 91.9756299360662" height="91.9756299360662" width="395.52"><g transform="matrix(1,0,0,1,0,0)"><svg width="395.52" viewBox="-1.45 -43.9 200.41 47.379999999999995" height="91.9756299360662" data-palette-color="#48937e"><path d="M27.28 0L1.55 0 1.55-2.27 22.28-34.48 22.55-33.52 1.83-33.52 1.83-37 27-37 27-34.73 6.25-2.53 6-3.48 27.28-3.48 27.28 0ZM38.8 0.45L38.8 0.45Q34.97 0.45 32.79-1.53 30.6-3.5 30.6-6.95L30.6-6.95Q30.6-10.5 32.94-12.49 35.27-14.48 40.45-14.98L40.45-14.98 47.72-15.75 48.1-13.1 40.7-12.3Q37.47-11.98 36.06-10.74 34.65-9.5 34.65-7.33L34.65-7.33Q34.65-5.05 35.95-3.85 37.25-2.65 39.82-2.65L39.82-2.65Q41.6-2.65 43.4-3.41 45.2-4.17 46.62-5.98L46.62-5.98 46.62-17.95Q46.62-20.45 45.85-21.81 45.07-23.18 43.52-23.73 41.97-24.28 39.62-24.28L39.62-24.28Q38.1-24.28 36.16-24 34.22-23.73 32.3-23.08L32.3-23.08 32.3-26.35Q34.05-26.93 36.16-27.24 38.27-27.55 40.15-27.55L40.15-27.55Q43.6-27.55 45.91-26.65 48.22-25.75 49.39-23.61 50.55-21.48 50.55-17.78L50.55-17.78 50.55 0 47.2 0 46.9-3.03 46.65-3.03Q45.32-1.35 43.26-0.45 41.2 0.45 38.8 0.45ZM63.59 0L59.62 0 59.62-31.23Q59.62-34.38 60.73-36.54 61.84-38.7 64.05-39.8 66.25-40.9 69.47-40.9L69.47-40.9Q70.4-40.9 71.33-40.83 72.27-40.75 73.17-40.6L73.17-40.6 73.17-37.25Q72.32-37.4 71.51-37.46 70.7-37.52 69.87-37.52L69.87-37.52Q66.7-37.52 65.15-36.13 63.59-34.73 63.59-31.4L63.59-31.4 63.59 0ZM72.12-23.83L54.52-23.83 54.52-27.13 72.12-27.13 72.12-23.83ZM81.87 0.45L81.87 0.45Q78.04 0.45 75.86-1.53 73.67-3.5 73.67-6.95L73.67-6.95Q73.67-10.5 76.01-12.49 78.34-14.48 83.52-14.98L83.52-14.98 90.79-15.75 91.17-13.1 83.77-12.3Q80.54-11.98 79.13-10.74 77.72-9.5 77.72-7.33L77.72-7.33Q77.72-5.05 79.02-3.85 80.32-2.65 82.89-2.65L82.89-2.65Q84.67-2.65 86.47-3.41 88.27-4.17 89.69-5.98L89.69-5.98 89.69-17.95Q89.69-20.45 88.92-21.81 88.14-23.18 86.59-23.73 85.04-24.28 82.69-24.28L82.69-24.28Q81.17-24.28 79.23-24 77.29-23.73 75.37-23.08L75.37-23.08 75.37-26.35Q77.12-26.93 79.23-27.24 81.34-27.55 83.22-27.55L83.22-27.55Q86.67-27.55 88.98-26.65 91.29-25.75 92.46-23.61 93.62-21.48 93.62-17.78L93.62-17.78 93.62 0 90.27 0 89.97-3.03 89.72-3.03Q88.39-1.35 86.33-0.45 84.27 0.45 81.87 0.45ZM104.89 0L100.89 0 100.89-27.13 104.24-27.13 104.57-23.5 104.82-23.5Q106.22-25.43 108.33-26.41 110.44-27.4 112.74-27.4L112.74-27.4Q113.37-27.4 113.88-27.35 114.39-27.3 114.89-27.2L114.89-27.2 114.89-23.5Q114.32-23.6 113.75-23.63 113.19-23.65 112.54-23.65L112.54-23.65Q111.22-23.65 109.78-23.24 108.34-22.83 107.07-21.96 105.79-21.1 104.89-19.8L104.89-19.8 104.89 0ZM127.49 0.48L127.49 0.48Q125.36 0.48 123.19 0.16 121.01-0.15 119.11-0.75L119.11-0.75 119.11-40.4 123.11-40.4 123.11-24.33 123.34-24.33Q124.59-25.75 126.5-26.65 128.41-27.55 130.86-27.55L130.86-27.55Q133.69-27.55 136.04-26.24 138.39-24.93 139.8-21.96 141.21-19 141.21-14.08L141.21-14.08Q141.21-6.73 137.73-3.13 134.24 0.48 127.49 0.48ZM127.79-2.8L127.79-2.8Q132.39-2.8 134.76-5.35 137.14-7.9 137.14-13.73L137.14-13.73Q137.14-17.78 136.16-20.03 135.19-22.28 133.5-23.19 131.81-24.1 129.69-24.1L129.69-24.1Q127.84-24.1 126.08-23.34 124.31-22.58 123.11-20.95L123.11-20.95 123.11-3.4Q124.01-3.15 125.25-2.98 126.49-2.8 127.79-2.8ZM158.91 0.48L158.91 0.48Q154.69 0.48 151.82-0.96 148.96-2.4 147.51-5.49 146.06-8.58 146.06-13.58L146.06-13.58Q146.06-18.35 147.4-21.45 148.74-24.55 151.2-26.05 153.66-27.55 157.04-27.55L157.04-27.55Q160.36-27.55 162.7-26.04 165.04-24.53 166.26-21.41 167.49-18.3 167.49-13.48L167.49-13.48 167.49-12.25 148.24-12.25 148.24-14.98 164.54-14.98 163.66-14.38Q163.66-18.18 162.87-20.43 162.09-22.68 160.6-23.66 159.11-24.65 156.99-24.65L156.99-24.65Q154.89-24.65 153.34-23.68 151.79-22.7 150.95-20.45 150.11-18.2 150.11-14.38L150.11-14.38 150.11-12.98Q150.11-9.22 151.12-6.99 152.14-4.75 154.19-3.76 156.24-2.78 159.39-2.78L159.39-2.78Q160.94-2.78 162.6-3.06 164.26-3.35 166.14-3.88L166.14-3.88 166.14-0.6Q164.19-0.05 162.42 0.21 160.66 0.48 158.91 0.48ZM195.96 0L191.43 0 180.53-13.9 190.68-27.13 195.13-27.13 184.71-13.4 184.71-14.5 195.96 0ZM182.26-12.23L176.73-12.23 176.73-15.58 182.26-15.58 182.26-12.23ZM177.23 0L173.23 0 173.23-40.4 177.23-40.4 177.23 0Z" opacity="1" transform="matrix(1,0,0,1,0,0)" fill="#48937e" class="wordmark-text-0" data-fill-palette-color="primary" id="text-0"></path></svg></g></svg></g><g transform="matrix(1,0,0,1,2.5,103.95002495855586)"><svg viewBox="0 0 390.52 50.71253614140655" height="50.71253614140655" width="390.52"><g transform="matrix(1,0,0,1,0,0)"><svg width="390.52" viewBox="-0.6600000000000001 -39.16 388 50.949999999999996" height="50.71253614140655" data-palette-color="#48937e"><path d="M23-17.9L23-17.9Q22.83-14.79 22.02-12.21 21.22-9.62 19.98-7.56 18.75-5.49 17.19-3.94 15.63-2.39 13.95-1.35 12.28-0.32 10.58 0.2 8.89 0.71 7.4 0.71L7.4 0.71Q6.15 0.68 5.13 0.56L5.13 0.56Q4.69 0.51 4.25 0.43 3.81 0.34 3.43 0.23 3.05 0.12 2.76-0.02 2.47-0.17 2.34-0.39L2.34-0.39 3.05-35.11Q3.54-35.42 4.19-35.63 4.83-35.84 5.55-35.95 6.27-36.06 7.01-36.11 7.74-36.16 8.4-36.16L8.4-36.16Q9.89-36.16 11.56-35.88 13.23-35.6 14.87-34.89 16.5-34.18 17.98-33 19.46-31.81 20.58-29.98 21.7-28.15 22.38-25.63 23.05-23.12 23.05-19.75L23.05-19.75Q23.05-19.29 23.05-18.84 23.05-18.38 23-17.9ZM18.09-18.46L18.09-18.46Q18.09-18.58 18.09-19.27 18.09-19.97 18.01-21.02 17.92-22.07 17.7-23.38 17.48-24.68 17.04-26.03 16.6-27.37 15.92-28.64 15.23-29.91 14.2-30.91 13.16-31.91 11.74-32.52 10.33-33.13 8.45-33.15L8.45-33.15 6.25-1.9Q7.35-2 8.59-2.37 9.84-2.73 11.07-3.49 12.3-4.25 13.46-5.46 14.62-6.67 15.56-8.47 16.5-10.28 17.18-12.74 17.85-15.21 18.09-18.46ZM70.62-14.36L52.87-14.36Q52.82-14.09 52.85-13.83 52.87-13.57 52.87-13.31L52.87-13.31Q52.87-10.86 53.36-9.19 53.85-7.52 54.59-6.42 55.34-5.32 56.23-4.74 57.12-4.15 57.9-3.87 58.68-3.59 59.24-3.54 59.8-3.49 59.93-3.49L59.93-3.49Q59.9-3.49 60.27-3.53 60.63-3.56 61.23-3.72 61.83-3.88 62.59-4.22 63.34-4.57 64.09-5.19 64.83-5.81 65.49-6.75 66.15-7.69 66.57-9.06L66.57-9.06 69.57-8.2Q69.2-6.69 68.59-5.52 67.98-4.35 67.24-3.47 66.49-2.59 65.65-1.97 64.81-1.34 64-0.95L64-0.95Q62.1 0.02 59.93 0.2L59.93 0.2Q57.78 0.2 56.13-0.45 54.48-1.1 53.29-2.2 52.09-3.3 51.28-4.71 50.48-6.13 50-7.68 49.53-9.23 49.32-10.78 49.11-12.33 49.11-13.7L49.11-13.7Q49.11-14.97 49.26-16.48 49.4-17.99 49.82-19.53 50.23-21.07 50.99-22.51 51.75-23.95 52.97-25.07 54.19-26.2 55.93-26.87 57.68-27.54 60.07-27.54L60.07-27.54Q60.49-27.54 61.43-27.45 62.37-27.37 63.54-26.97 64.71-26.56 65.96-25.74 67.2-24.93 68.24-23.46 69.28-22 69.95-19.78 70.62-17.55 70.62-14.36L70.62-14.36ZM59.93-23.8L59.93-23.8Q58.24-23.68 56.83-23L56.83-23Q56.22-22.71 55.62-22.25 55.02-21.8 54.51-21.15 53.99-20.51 53.6-19.63 53.21-18.75 53.07-17.6L53.07-17.6 66.47-17.6Q66.32-19.04 65.69-20.19 65.05-21.34 64.14-22.14 63.22-22.95 62.11-23.38 61-23.8 59.93-23.8ZM111.33-26L115.77-25.39 107.67-0.05 102.81-0.05 95.46-25.29 99.88-26 105.47-2.81 111.33-26ZM162.18-14.36L144.43-14.36Q144.38-14.09 144.4-13.83 144.43-13.57 144.43-13.31L144.43-13.31Q144.43-10.86 144.91-9.19 145.4-7.52 146.15-6.42 146.89-5.32 147.78-4.74 148.67-4.15 149.46-3.87 150.24-3.59 150.8-3.54 151.36-3.49 151.48-3.49L151.48-3.49Q151.46-3.49 151.82-3.53 152.19-3.56 152.79-3.72 153.39-3.88 154.14-4.22 154.9-4.57 155.64-5.19 156.39-5.81 157.05-6.75 157.71-7.69 158.12-9.06L158.12-9.06 161.13-8.2Q160.76-6.69 160.15-5.52 159.54-4.35 158.79-3.47 158.05-2.59 157.21-1.97 156.37-1.34 155.56-0.95L155.56-0.95Q153.66 0.02 151.48 0.2L151.48 0.2Q149.33 0.2 147.69-0.45 146.04-1.1 144.84-2.2 143.65-3.3 142.84-4.71 142.03-6.13 141.56-7.68 141.08-9.23 140.87-10.78 140.67-12.33 140.67-13.7L140.67-13.7Q140.67-14.97 140.81-16.48 140.96-17.99 141.37-19.53 141.79-21.07 142.55-22.51 143.3-23.95 144.52-25.07 145.74-26.2 147.49-26.87 149.24-27.54 151.63-27.54L151.63-27.54Q152.04-27.54 152.98-27.45 153.92-27.37 155.1-26.97 156.27-26.56 157.51-25.74 158.76-24.93 159.8-23.46 160.83-22 161.5-19.78 162.18-17.55 162.18-14.36L162.18-14.36ZM151.48-23.8L151.48-23.8Q149.8-23.68 148.38-23L148.38-23Q147.77-22.71 147.17-22.25 146.58-21.8 146.06-21.15 145.55-20.51 145.16-19.63 144.77-18.75 144.62-17.6L144.62-17.6 158.03-17.6Q157.88-19.04 157.24-20.19 156.61-21.34 155.69-22.14 154.78-22.95 153.67-23.38 152.56-23.8 151.48-23.8ZM189.46-34.74L193.34-34.45 192.85-0.15 189.95-0.15 189.46-34.74ZM242.67-14.55L242.67-14.55Q242.67-11.04 241.85-8.25 241.04-5.47 239.63-3.53 238.23-1.59 236.32-0.55 234.42 0.49 232.27 0.49L232.27 0.49Q230.1 0.49 228.19-0.59 226.29-1.66 224.87-3.64 223.46-5.62 222.64-8.39 221.82-11.16 221.82-14.55L221.82-14.55Q221.82-17.46 222.54-19.86 223.26-22.27 224.62-24 225.97-25.73 227.91-26.7 229.85-27.66 232.27-27.66L232.27-27.66Q234.96-27.66 236.91-26.7 238.86-25.73 240.15-24 241.43-22.27 242.05-19.86 242.67-17.46 242.67-14.55ZM238.89-14.5L238.89-14.5Q238.89-16.7 238.5-18.51 238.11-20.31 237.29-21.62 236.47-22.92 235.23-23.63 233.98-24.34 232.27-24.34L232.27-24.34Q230.73-24.34 229.5-23.63 228.27-22.92 227.41-21.62 226.56-20.31 226.1-18.51 225.63-16.7 225.63-14.5L225.63-14.5Q225.63-11.94 226.16-9.86 226.68-7.79 227.57-6.3 228.46-4.81 229.67-4 230.88-3.2 232.27-3.2L232.27-3.2Q233.64-3.2 234.85-3.98 236.06-4.76 236.95-6.23 237.84-7.69 238.36-9.78 238.89-11.87 238.89-14.5ZM291.86-14.21L291.86-14.21Q291.86-11.16 291.18-8.36 290.51-5.57 289.23-3.44 287.95-1.32 286.09-0.06 284.24 1.2 281.87 1.2L281.87 1.2Q280.26 1.12 278.75 0.54L278.75 0.54Q278.11 0.29 277.44-0.09 276.77-0.46 276.12-1.01 275.47-1.56 274.91-2.31 274.35-3.05 273.91-4.05L273.91-4.05 273.91 8.79 270.47 8.79 270.47-25.9 274.3-25.9 273.96-22.14Q274.47-23 275.08-23.66 275.69-24.32 276.35-24.8 277.01-25.29 277.68-25.62 278.36-25.95 278.99-26.17L278.99-26.17Q280.45-26.68 281.97-26.76L281.97-26.76Q284.09-26.76 285.89-25.89 287.68-25.02 288.99-23.39 290.29-21.75 291.05-19.43 291.81-17.11 291.86-14.21ZM281.02-2.54L281.02-2.54Q282.48-2.54 283.59-3.09 284.7-3.64 285.51-4.55 286.31-5.47 286.85-6.67 287.39-7.86 287.72-9.18 288.05-10.5 288.18-11.83 288.32-13.16 288.32-14.36L288.32-14.36Q288.32-16.87 287.63-18.62 286.95-20.36 285.92-21.46 284.9-22.56 283.69-23.06 282.48-23.56 281.41-23.56L281.41-23.56Q280.31-23.56 279.03-22.99 277.74-22.41 276.65-21.19 275.55-19.97 274.83-18.08 274.11-16.19 274.11-13.55L274.11-13.55Q274.11-11.4 274.44-9.77 274.77-8.13 275.32-6.9 275.86-5.66 276.59-4.83 277.31-4 278.07-3.49 278.84-2.98 279.6-2.76 280.36-2.54 281.02-2.54ZM339.67-14.36L321.92-14.36Q321.87-14.09 321.9-13.83 321.92-13.57 321.92-13.31L321.92-13.31Q321.92-10.86 322.41-9.19 322.9-7.52 323.64-6.42 324.39-5.32 325.28-4.74 326.17-4.15 326.95-3.87 327.73-3.59 328.3-3.54 328.86-3.49 328.98-3.49L328.98-3.49Q328.95-3.49 329.32-3.53 329.69-3.56 330.29-3.72 330.88-3.88 331.64-4.22 332.4-4.57 333.14-5.19 333.89-5.81 334.55-6.75 335.2-7.69 335.62-9.06L335.62-9.06 338.62-8.2Q338.26-6.69 337.65-5.52 337.04-4.35 336.29-3.47 335.55-2.59 334.7-1.97 333.86-1.34 333.06-0.95L333.06-0.95Q331.15 0.02 328.98 0.2L328.98 0.2Q326.83 0.2 325.18-0.45 323.54-1.1 322.34-2.2 321.14-3.3 320.34-4.71 319.53-6.13 319.06-7.68 318.58-9.23 318.37-10.78 318.16-12.33 318.16-13.7L318.16-13.7Q318.16-14.97 318.31-16.48 318.46-17.99 318.87-19.53 319.29-21.07 320.04-22.51 320.8-23.95 322.02-25.07 323.24-26.2 324.99-26.87 326.73-27.54 329.13-27.54L329.13-27.54Q329.54-27.54 330.48-27.45 331.42-27.37 332.59-26.97 333.76-26.56 335.01-25.74 336.25-24.93 337.29-23.46 338.33-22 339-19.78 339.67-17.55 339.67-14.36L339.67-14.36ZM328.98-23.8L328.98-23.8Q327.29-23.68 325.88-23L325.88-23Q325.27-22.71 324.67-22.25 324.07-21.8 323.56-21.15 323.05-20.51 322.66-19.63 322.27-18.75 322.12-17.6L322.12-17.6 335.52-17.6Q335.38-19.04 334.74-20.19 334.11-21.34 333.19-22.14 332.28-22.95 331.16-23.38 330.05-23.8 328.98-23.8ZM379.29-26.29L379.29-26.29Q380.7-26.29 381.67-25.71 382.63-25.12 383.23-24.15 383.83-23.17 384.08-21.89 384.34-20.61 384.34-19.24L384.34-19.24Q384.34-17.9 384.19-16 384.05-14.11 383.56-12.16L383.56-12.16 380.56-12.6Q380.85-14.33 380.95-15.78 381.04-17.24 381.04-18.31L381.04-18.31Q381.04-20.92 380.49-21.98 379.95-23.05 378.8-23.05L378.8-23.05Q377.8-23.05 376.63-22.12 375.45-21.19 374.33-19.31 373.21-17.43 372.28-14.58 371.35-11.72 370.84-7.86L370.84-7.86 370.84 0.76 367.15 0.56Q367.13-6.54 367.02-11.58 366.91-16.63 366.81-19.82L366.81-19.82Q366.66-23.58 366.49-26L366.49-26 370.84-26.29 370.84-18.31Q371.33-19.63 372.1-21.03 372.87-22.44 373.93-23.61 374.99-24.78 376.32-25.54 377.65-26.29 379.29-26.29Z" opacity="1" transform="matrix(1,0,0,1,0,0)" fill="#48937e" class="slogan-text-1" data-fill-palette-color="secondary" id="text-1"></path></svg></g></svg></g></svg></g></svg></g></svg></g></svg></g></svg></g></svg></g><defs></defs></svg><rect width="395.52" height="247.2" fill="none" stroke="none" visibility="hidden"></rect></g></svg></g></svg>