<svg xmlns="http://www.w3.org/2000/svg" version="1.1" xmlns:xlink="http://www.w3.org/1999/xlink" xmlns:svgjs="http://svgjs.dev/svgjs" width="2000" height="2000" viewBox="0 0 2000 2000"><g transform="matrix(1,0,0,1,-0.28443113772425477,-0.28443113772459583)"><svg viewBox="0 0 334 334" data-background-color="#ffffff" preserveAspectRatio="xMidYMid meet" height="2000" width="2000" xmlns="http://www.w3.org/2000/svg" xmlns:xlink="http://www.w3.org/1999/xlink"><g id="tight-bounds" transform="matrix(1,0,0,1,0.04749999999998522,0.04750000000001364)"><svg viewBox="0 0 333.90454557049503 333.90454557049503" height="333.90454557049503" width="333.90454557049503"><g><svg></svg></g><g><svg viewBox="0 0 333.90454557049503 333.90454557049503" height="333.90454557049503" width="333.90454557049503"><g><path d="M0 166.952c0-92.205 74.747-166.952 166.952-166.952 92.205 0 166.952 74.747 166.953 166.952 0 92.205-74.747 166.952-166.953 166.953-92.205 0-166.952-74.747-166.952-166.953zM166.952 330.191c90.155 0 163.239-73.085 163.239-163.239 0-90.155-73.085-163.239-163.239-163.239-90.155 0-163.239 73.085-163.239 163.239 0 90.155 73.085 163.239 163.239 163.239z" data-fill-palette-color="tertiary" fill="#919591" stroke="transparent"></path><ellipse rx="160.27418187383762" ry="160.27418187383762" cx="166.95227278524752" cy="166.95227278524752" fill="#919591" stroke="transparent" stroke-width="0" fill-opacity="1" data-fill-palette-color="tertiary"></ellipse></g><g transform="matrix(1,0,0,1,74.62567311520453,71.17305217166896)"><svg viewBox="0 0 184.65319934008596 191.55844122715712" height="191.55844122715712" width="184.65319934008596"><g><svg viewBox="0 0 184.65319934008596 191.55844122715712" height="191.55844122715712" width="184.65319934008596"><g><svg viewBox="0 0 213.15844122715714 221.1296575516231" height="191.55844122715712" width="184.65319934008596"><g transform="matrix(1,0,0,1,0,133.0066032839048)"><svg viewBox="0 0 213.15844122715714 88.1230542677183" height="88.1230542677183" width="213.15844122715714"><g id="textblocktransform"><svg viewBox="0 0 213.15844122715714 88.1230542677183" height="88.1230542677183" width="213.15844122715714" id="textblock"><g><svg viewBox="0 0 213.15844122715714 47.529364636464905" height="47.529364636464905" width="213.15844122715714"><g transform="matrix(1,0,0,1,0,0)"><svg width="213.15844122715714" viewBox="1.2 -20.25 90.79891891489198 20.25" height="47.529364636464905" data-palette-color="#ffffff"><path d="M11.95 0L11.95 0 1.8 0Q1.6 0 1.4-0.18 1.2-0.35 1.2-0.7L1.2-0.7 1.2-1.25Q1.2-1.35 1.2-1.48 1.2-1.6 1.3-1.75L1.3-1.75 10.3-18.4 2.1-18.4Q1.85-18.4 1.65-18.55 1.45-18.7 1.45-19.1L1.45-19.1 1.45-19.5Q1.45-20.2 2.1-20.2L2.1-20.2 11.65-20.2Q12.35-20.2 12.35-19.5L12.35-19.5 12.35-18.95Q12.35-18.9 12.33-18.85 12.3-18.8 12.3-18.7L12.3-18.7 12.25-18.4 3.2-1.8 11.95-1.8Q12.2-1.8 12.43-1.63 12.65-1.45 12.65-1.1L12.65-1.1 12.65-0.7Q12.65-0.25 12.43-0.13 12.2 0 11.95 0ZM24.15 0L24.15 0 23.85 0Q23.5 0 23.2-0.65L23.2-0.65Q21.85 0 20.95 0L20.95 0 19.15 0Q17.45 0 16.5-1.1 15.55-2.2 15.55-4.1L15.55-4.1 15.55-10.6Q15.55-12.5 16.5-13.6 17.45-14.7 19.15-14.7L19.15-14.7 24.15-14.7Q24.75-14.7 24.75-14.1L24.75-14.1 24.75-0.65Q24.75 0 24.15 0ZM23.4-11.05L23.4-11.7Q23.4-11.9 23.3-12.3L23.3-12.3Q23.2-12.65 22.95-12.85 22.7-13.05 22.15-13.15L22.15-13.15 19.15-13.15Q16.95-13.15 16.95-10.6L16.95-10.6 16.95-4.15Q16.95-1.55 19.15-1.55L19.15-1.55 20.9-1.55Q23.35-1.55 23.35-4L23.35-4Q23.35-7.4 23.37-8.95 23.4-10.5 23.4-11.05L23.4-11.05ZM33.3-13.35L33.3-13.35 31.34-13.35 31.34-0.65Q31.34-0.4 31.2-0.2 31.05 0 30.84 0L30.84 0 30.55 0Q30.09 0 30.09-0.65L30.09-0.65 30.09-13.35 28.59-13.35Q28.09-13.35 28.09-13.95L28.09-13.95 28.09-14.3Q28.09-14.95 28.59-14.95L28.59-14.95 30.09-14.95 30.09-16.15Q30.09-18.3 30.82-19.28 31.55-20.25 32.95-20.25L32.95-20.25 33.3-20.25Q33.5-20.25 33.67-20.13 33.84-20 33.84-19.65L33.84-19.65 33.84-19.35Q33.84-18.9 33.7-18.75 33.55-18.6 33.3-18.6L33.3-18.6 32.95-18.6Q32.09-18.6 31.72-18.03 31.34-17.45 31.34-16.1L31.34-16.1 31.34-14.95 33.3-14.95Q33.84-14.95 33.84-14.3L33.84-14.3 33.84-13.95Q33.84-13.7 33.67-13.53 33.5-13.35 33.3-13.35ZM45.49 0L45.49 0 45.19 0Q44.84 0 44.54-0.65L44.54-0.65Q43.19 0 42.29 0L42.29 0 40.49 0Q38.79 0 37.84-1.1 36.89-2.2 36.89-4.1L36.89-4.1 36.89-10.6Q36.89-12.5 37.84-13.6 38.79-14.7 40.49-14.7L40.49-14.7 45.49-14.7Q46.09-14.7 46.09-14.1L46.09-14.1 46.09-0.65Q46.09 0 45.49 0ZM44.74-11.05L44.74-11.7Q44.74-11.9 44.64-12.3L44.64-12.3Q44.54-12.65 44.29-12.85 44.04-13.05 43.49-13.15L43.49-13.15 40.49-13.15Q38.29-13.15 38.29-10.6L38.29-10.6 38.29-4.15Q38.29-1.55 40.49-1.55L40.49-1.55 42.24-1.55Q44.69-1.55 44.69-4L44.69-4Q44.69-7.4 44.72-8.95 44.74-10.5 44.74-11.05L44.74-11.05ZM53.69-13.15L53.69-13.15 52.79-13.15Q51.79-13.15 51.24-12.38 50.69-11.6 50.69-10.35L50.69-10.35 50.69-0.65Q50.69 0 50.19 0L50.19 0 49.89 0Q49.49 0 49.49-0.65L49.49-0.65 49.49-14.1Q49.49-14.7 49.89-14.7L49.89-14.7 50.19-14.7Q50.39-14.7 50.49-14.6 50.59-14.5 50.79-14L50.79-14Q51.44-14.35 51.87-14.53 52.29-14.7 52.84-14.7L52.84-14.7 53.69-14.7Q53.89-14.7 54.04-14.53 54.19-14.35 54.19-14.1L54.19-14.1 54.19-13.75Q54.19-13.15 53.69-13.15ZM62.99 0L62.99 0 57.94 0Q57.69 0 57.56-0.2 57.44-0.4 57.44-0.65L57.44-0.65 57.44-19.6Q57.44-20.25 57.94-20.25L57.94-20.25 58.29-20.25Q58.84-20.25 58.84-19.6L58.84-19.6 58.84-14.45Q59.69-14.95 60.16-15.1 60.64-15.25 61.19-15.25L61.19-15.25 62.99-15.25Q64.64-15.25 65.64-14.1 66.64-12.95 66.64-11L66.64-11 66.64-4.2Q66.64-2.15 65.64-1.07 64.64 0 62.99 0ZM65.19-4.25L65.19-10.95Q65.19-13.6 62.99-13.6L62.99-13.6 61.19-13.6Q58.84-13.6 58.84-11.1L58.84-11.1 58.84-1.65 62.99-1.65Q65.19-1.65 65.19-4.25L65.19-4.25ZM79.09-6.45L79.09-6.45 71.64-6.45 71.64-4.15Q71.64-1.55 73.84-1.55L73.84-1.55 78.89-1.55Q79.49-1.55 79.49-0.95L79.49-0.95 79.49-0.6Q79.49-0.3 79.29-0.15 79.09 0 78.89 0L78.89 0 73.84 0Q72.14 0 71.19-1.1 70.24-2.2 70.24-4.1L70.24-4.1 70.24-10.6Q70.24-12.5 71.19-13.6 72.14-14.7 73.84-14.7L73.84-14.7 75.99-14.7Q77.74-14.7 78.69-13.6 79.64-12.5 79.64-10.6L79.64-10.6 79.64-7.15Q79.64-6.45 79.09-6.45ZM78.24-8L78.24-10.6Q78.24-13.15 75.99-13.15L75.99-13.15 73.84-13.15Q71.64-13.15 71.64-10.6L71.64-10.6 71.64-8 78.24-8ZM91.43 0L91.43 0 91.03 0Q90.48 0 90.28-0.4L90.28-0.4 86.08-7.3Q85.78-7.7 86.08-8.15L86.08-8.15 89.83-14.55Q89.93-14.75 90.21-14.85 90.48-14.95 90.58-14.95L90.58-14.95 90.88-14.95Q91.23-14.95 91.33-14.65 91.43-14.35 91.28-14.1L91.28-14.1 87.58-7.7 91.83-0.85Q92.08-0.5 91.96-0.25 91.83 0 91.43 0ZM84.18 0L84.18 0 83.83 0Q83.58 0 83.46-0.2 83.33-0.4 83.33-0.65L83.33-0.65 83.33-19.6Q83.33-20.25 83.83-20.25L83.83-20.25 84.18-20.25Q84.73-20.25 84.73-19.6L84.73-19.6 84.73-0.65Q84.73 0 84.18 0Z" opacity="1" transform="matrix(1,0,0,1,0,0)" fill="#ffffff" class="wordmark-text-0" data-fill-palette-color="quaternary" id="text-0"></path></svg></g></svg></g><g transform="matrix(1,0,0,1,0,58.74990692238299)"><svg viewBox="0 0 213.15844122715714 29.373147345335312" height="29.373147345335312" width="213.15844122715714"><g transform="matrix(1,0,0,1,0,0)"><svg width="213.15844122715714" viewBox="4.65 -35.3 335.63 46.25" height="29.373147345335312" data-palette-color="#ffffff"><path d="M4.65 0L16.2 0Q21.2 0 24.58-2.27 27.95-4.55 29.7-8.45 31.45-12.35 31.45-17.2L31.45-17.2Q31.45-21.95 29.9-25.75 28.35-29.55 25.1-31.78 21.85-34 16.55-34L16.55-34 4.65-34 4.65 0ZM8.55-30.6L16.7-30.6Q20.4-30.6 22.78-28.85 25.15-27.1 26.33-24.08 27.5-21.05 27.5-17.15L27.5-17.15Q27.5-12.85 26.08-9.75 24.65-6.65 22.15-4.98 19.65-3.3 16.25-3.3L16.25-3.3 8.55-3.3 8.55-30.6ZM55.4-11.5L73-11.5 73-11.85Q73-15.5 71.93-18.45 70.85-21.4 68.58-23.15 66.3-24.9 62.65-24.9L62.65-24.9Q59.05-24.9 56.53-23.28 54-21.65 52.68-18.8 51.35-15.95 51.35-12.2L51.35-12.2Q51.35-8.4 52.75-5.5 54.15-2.6 56.98-1 59.8 0.6 64.05 0.6L64.05 0.6Q65.85 0.6 67.38 0.28 68.9-0.05 70.23-0.63 71.55-1.2 72.7-1.85L72.7-1.85 71.4-4.75Q69.5-3.8 67.8-3.23 66.1-2.65 64-2.65L64-2.65Q61-2.65 59.15-3.8 57.3-4.95 56.43-6.95 55.55-8.95 55.4-11.5L55.4-11.5ZM69.1-14.2L55.5-14.2Q55.75-16.4 56.58-18.05 57.4-19.7 58.88-20.63 60.35-21.55 62.5-21.55L62.5-21.55Q64.6-21.55 65.98-20.63 67.35-19.7 68.1-18.05 68.85-16.4 69.1-14.2L69.1-14.2ZM100.21 0L104.06 0 113.06-24.25 109.11-24.25 102.16-5.35 94.91-25.05 91.31-23.5 100.21 0ZM135.41-11.5L153.01-11.5 153.01-11.85Q153.01-15.5 151.94-18.45 150.86-21.4 148.59-23.15 146.31-24.9 142.66-24.9L142.66-24.9Q139.06-24.9 136.54-23.28 134.01-21.65 132.69-18.8 131.36-15.95 131.36-12.2L131.36-12.2Q131.36-8.4 132.76-5.5 134.16-2.6 136.99-1 139.81 0.6 144.06 0.6L144.06 0.6Q145.86 0.6 147.39 0.28 148.91-0.05 150.24-0.63 151.56-1.2 152.71-1.85L152.71-1.85 151.41-4.75Q149.51-3.8 147.81-3.23 146.11-2.65 144.01-2.65L144.01-2.65Q141.01-2.65 139.16-3.8 137.31-4.95 136.44-6.95 135.56-8.95 135.41-11.5L135.41-11.5ZM149.11-14.2L135.51-14.2Q135.76-16.4 136.59-18.05 137.41-19.7 138.89-20.63 140.36-21.55 142.51-21.55L142.51-21.55Q144.61-21.55 145.99-20.63 147.36-19.7 148.11-18.05 148.86-16.4 149.11-14.2L149.11-14.2ZM174.47 0L178.37 0 178.37-35.3 174.47-34.75 174.47 0ZM211.37 0.65L211.37 0.65Q207.77 0.7 205.17-0.98 202.57-2.65 201.2-5.53 199.82-8.4 199.82-12.2L199.82-12.2Q199.87-15.9 201.3-18.75 202.72-21.6 205.4-23.25 208.07-24.9 211.72-24.9L211.72-24.9Q215.37-24.9 217.97-23.3 220.57-21.7 221.97-18.85 223.37-16 223.37-12.05L223.37-12.05Q223.37-8.35 221.9-5.5 220.42-2.65 217.75-1 215.07 0.65 211.37 0.65ZM211.47-2.7L211.47-2.7Q213.97-2.7 215.72-3.95 217.47-5.2 218.4-7.3 219.32-9.4 219.32-12L219.32-12Q219.32-14.75 218.45-16.9 217.57-19.05 215.9-20.3 214.22-21.55 211.67-21.55L211.67-21.55Q209.22-21.55 207.47-20.3 205.72-19.05 204.8-16.95 203.87-14.85 203.82-12.25L203.82-12.25Q203.82-9.55 204.67-7.38 205.52-5.2 207.25-3.95 208.97-2.7 211.47-2.7ZM244.57 10.95L248.47 10.4 248.47-21.1 246.92-24.25 244.57-24.25 244.57 10.95ZM246.07-20.8L247.27-17.95Q248.72-19.65 250.3-20.6 251.87-21.55 254.22-21.55L254.22-21.55Q256.72-21.55 258.4-20.33 260.07-19.1 260.87-16.95 261.67-14.8 261.67-12L261.67-12Q261.67-9.4 260.82-7.3 259.97-5.2 258.3-3.95 256.62-2.7 254.12-2.7L254.12-2.7Q251.77-2.7 250.17-3.63 248.57-4.55 247.17-6.1L247.17-6.1 245.97-3.4Q247.02-2.15 248.4-1.25 249.77-0.35 251.25 0.15 252.72 0.65 254.02 0.65L254.02 0.65Q257.67 0.65 260.27-0.98 262.87-2.6 264.3-5.48 265.72-8.35 265.72-12.05L265.72-12.05Q265.72-15.9 264.37-18.78 263.02-21.65 260.42-23.28 257.82-24.9 254.17-24.9L254.17-24.9Q252.92-24.9 251.42-24.45 249.92-24 248.52-23.08 247.12-22.15 246.07-20.8L246.07-20.8ZM289.18-11.5L306.78-11.5 306.78-11.85Q306.78-15.5 305.7-18.45 304.63-21.4 302.35-23.15 300.08-24.9 296.43-24.9L296.43-24.9Q292.83-24.9 290.3-23.28 287.78-21.65 286.45-18.8 285.13-15.95 285.13-12.2L285.13-12.2Q285.13-8.4 286.53-5.5 287.93-2.6 290.75-1 293.58 0.6 297.83 0.6L297.83 0.6Q299.63 0.6 301.15 0.28 302.68-0.05 304-0.63 305.33-1.2 306.48-1.85L306.48-1.85 305.18-4.75Q303.28-3.8 301.58-3.23 299.88-2.65 297.78-2.65L297.78-2.65Q294.78-2.65 292.93-3.8 291.08-4.95 290.2-6.95 289.33-8.95 289.18-11.5L289.18-11.5ZM302.88-14.2L289.28-14.2Q289.53-16.4 290.35-18.05 291.18-19.7 292.65-20.63 294.13-21.55 296.28-21.55L296.28-21.55Q298.38-21.55 299.75-20.63 301.13-19.7 301.88-18.05 302.63-16.4 302.88-14.2L302.88-14.2ZM327.73 0L331.63 0 331.63-16.7Q332.73-17.8 334.18-18.8 335.63-19.8 337.26-20.45 338.88-21.1 340.28-21.1L340.28-21.1 339.33-24.25Q338.03-24.25 336.51-23.6 334.98-22.95 333.61-22.03 332.23-21.1 331.28-20.35L331.28-20.35 330.08-24.25 327.73-24.25 327.73 0Z" opacity="1" transform="matrix(1,0,0,1,0,0)" fill="#ffffff" class="slogan-text-1" data-fill-palette-color="quaternary" id="text-1"></path></svg></g></svg></g></svg></g></svg></g><g transform="matrix(1,0,0,1,45.17957919642162,0)"><svg viewBox="0 0 122.7992828343139 121.78606099798671" height="121.78606099798671" width="122.7992828343139"><g><svg xmlns="http://www.w3.org/2000/svg" xmlns:xlink="http://www.w3.org/1999/xlink" version="1.1" x="0" y="0" viewBox="0.7534958055897395 0.8368608799048752 46.648033929808186 46.263139120095126" enable-background="new 0 0 48 48" xml:space="preserve" height="121.78606099798671" width="122.7992828343139" class="icon-icon-0" data-fill-palette-color="quaternary" id="icon-0"><g fill="#ffffff" data-fill-palette-color="quaternary"><g fill="#ffffff" data-fill-palette-color="quaternary"><g fill="#ffffff" data-fill-palette-color="quaternary"><path fill="#ffffff" d="M0.9 2.4C1.3 11.2 1.3 20.1 1.3 29 1.3 31.1 0.5 40.5 4.2 40.7 12.9 41.3 21.8 40.8 30.5 40.8 32.9 40.8 45.2 42.3 46.1 39 48.2 31.7 47.2 22.9 46.9 15.4 46.7 11.2 46.5 6.9 46.3 2.7 46.3 1.8 45.9 1.6 45.1 1.4 41.7 0.4 36.9 1.3 33.4 1.2 28.9 1.1 24.4 1.1 19.9 1 15.4 1.1 10.9 1 6.4 1 4.7 1 2.2 0.3 0.9 1.8 0.4 2.3 1.3 3.2 1.8 2.6 2.9 1.4 8.8 2.2 10.3 2.3 13.5 2.3 16.7 2.4 19.9 2.4L39.2 2.7C40.5 2.7 41.8 2.7 43.1 2.8 45.9 2.8 45.3 6.7 45.4 8.3 45.6 11.4 45.7 14.4 45.8 17.5 46.1 23.7 46.1 30 45.5 36.2 45 41.6 30.1 39.8 26.7 39.8H7.3C2.2 39.8 2.9 35.1 2.7 31.2 2.6 28 2.7 24.8 2.7 21.6 2.7 15.3 2.5 8.9 2.3 2.6 2.2 1.5 0.9 1.5 0.9 2.4" data-fill-palette-color="quaternary"></path></g></g><g fill="#ffffff" data-fill-palette-color="quaternary"><g fill="#ffffff" data-fill-palette-color="quaternary"><path fill="#ffffff" d="M17.2 10.2C15.6 11.6 13.4 12.3 11.7 13.5 10.7 14.2 8.8 15.6 8.4 16.9 8.2 17.8 9.3 18.3 9.9 18.7 12.3 20.2 14.4 22 16.3 24 16.9 24.6 17.7 23.7 17.2 23.1 16 21.9 14.8 20.7 13.5 19.6 13 19.2 9.7 17.2 10.2 16.5 12.4 13.9 15.7 13.1 18.2 10.9 18.7 10.5 17.8 9.6 17.2 10.2" data-fill-palette-color="quaternary"></path></g></g><g fill="#ffffff" data-fill-palette-color="quaternary"><g fill="#ffffff" data-fill-palette-color="quaternary"><path fill="#ffffff" d="M27.2 6.7C24.5 13.9 22 21.2 19.6 28.6 19.3 29.4 20.6 29.7 20.8 28.9 23.2 21.6 25.7 14.3 28.4 7 28.7 6.3 27.5 5.9 27.2 6.7" data-fill-palette-color="quaternary"></path></g></g><g fill="#ffffff" data-fill-palette-color="quaternary"><g fill="#ffffff" data-fill-palette-color="quaternary"><path fill="#ffffff" d="M29.3 11.6C30.8 12.7 32.2 13.9 33.7 15 34.6 15.7 35.5 16.4 36.3 17.1 37.6 18.1 37 18 35.9 18.8 33.5 20.5 31.6 22.7 29.9 25.1 29.4 25.8 30.5 26.4 31 25.7 32.4 23.7 34.1 21.9 36 20.3 36.4 20 38.7 18.8 38.7 17.9 38.7 16.7 37.2 16 36.4 15.4 34.3 13.8 32.3 12.2 30.2 10.6 29.5 10.2 28.6 11.1 29.3 11.6" data-fill-palette-color="quaternary"></path></g></g><g fill="#ffffff" data-fill-palette-color="quaternary"><g fill="#ffffff" data-fill-palette-color="quaternary"><path fill="#ffffff" d="M2.3 31.9C17.1 32.2 31.8 32.1 46.6 31.6 47.4 31.6 47.4 30.3 46.6 30.3 31.8 30.9 17.1 31 2.3 30.6 1.5 30.6 1.5 31.9 2.3 31.9" data-fill-palette-color="quaternary"></path></g></g><g fill="#ffffff" data-fill-palette-color="quaternary"><g fill="#ffffff" data-fill-palette-color="quaternary"><path fill="#ffffff" d="M21.1 36.6H24.4C25.2 36.6 25.2 35.3 24.4 35.3H21.1C20.3 35.4 20.3 36.6 21.1 36.6" data-fill-palette-color="quaternary"></path></g></g><g fill="#ffffff" data-fill-palette-color="quaternary"><g fill="#ffffff" data-fill-palette-color="quaternary"><path fill="#ffffff" d="M23.8 40.3C23.5 42.1 23.4 43.9 23.6 45.8 23.7 46.6 24.9 46.6 24.9 45.8 24.7 44.1 24.7 42.4 25 40.7 25.2 39.8 24 39.5 23.8 40.3" data-fill-palette-color="quaternary"></path></g></g><g fill="#ffffff" data-fill-palette-color="quaternary"><g fill="#ffffff" data-fill-palette-color="quaternary"><path fill="#ffffff" d="M15.1 47.1H35.7C36.5 47.1 36.5 45.8 35.7 45.8H15.1C14.3 45.8 14.3 47.1 15.1 47.1" data-fill-palette-color="quaternary"></path></g></g></g></svg></g></svg></g><g></g></svg></g></svg></g></svg></g></svg></g><defs></defs></svg><rect width="333.90454557049503" height="333.90454557049503" fill="none" stroke="none" visibility="hidden"></rect></g></svg></g></svg>